<?xml version="1.0" encoding="UTF-8" standalone="no"?>
<!-- Created with Inkscape (http://www.inkscape.org/) -->

<svg
   xmlns:dc="http://purl.org/dc/elements/1.1/"
   xmlns:cc="http://creativecommons.org/ns#"
   xmlns:rdf="http://www.w3.org/1999/02/22-rdf-syntax-ns#"
   xmlns:svg="http://www.w3.org/2000/svg"
   xmlns="http://www.w3.org/2000/svg"
   xmlns:sodipodi="http://sodipodi.sourceforge.net/DTD/sodipodi-0.dtd"
   xmlns:inkscape="http://www.inkscape.org/namespaces/inkscape"
   width="22.000031mm"
   height="21.907249mm"
   viewBox="0 0 77.952864 77.624112"
   id="svg3501"
   version="1.1"
   inkscape:version="0.91 r13725"
   sodipodi:docname="Geodis.svg">
  <defs
     id="defs3503" />
  <sodipodi:namedview
     id="base"
     pagecolor="#ffffff"
     bordercolor="#666666"
     borderopacity="1.0"
     inkscape:pageopacity="0.0"
     inkscape:pageshadow="2"
     inkscape:zoom="7.9195959"
     inkscape:cx="40.071085"
     inkscape:cy="37.826746"
     inkscape:document-units="px"
     inkscape:current-layer="layer1"
     showgrid="false"
     fit-margin-left="1"
     fit-margin-bottom="1"
     fit-margin-top="1"
     fit-margin-right="1"
     inkscape:window-width="1920"
     inkscape:window-height="1017"
     inkscape:window-x="-8"
     inkscape:window-y="-8"
     inkscape:window-maximized="1" />
  <metadata
     id="metadata3506">
    <rdf:RDF>
      <cc:Work
         rdf:about="">
        <dc:format>image/svg+xml</dc:format>
        <dc:type
           rdf:resource="http://purl.org/dc/dcmitype/StillImage" />
        <dc:title></dc:title>
      </cc:Work>
    </rdf:RDF>
  </metadata>
  <g
     inkscape:label="Calque 1"
     inkscape:groupmode="layer"
     id="layer1"
     transform="translate(-289.59499,-284.97872)">
    <g
       transform="matrix(1.25,0,0,-1.25,248.13955,404.05828)"
       id="g3482"
       style="fill:#3200e6;fill-opacity:1">
      <g
         transform="translate(66.377,92.315)"
         id="g3360"
         style="fill:#3200e6;fill-opacity:1">
        <path
           inkscape:connector-curvature="0"
           id="path3362"
           style="fill:#3200e6;fill-opacity:1;fill-rule:nonzero;stroke:none"
           d="m 0,0 c -0.058,-0.179 -0.102,-0.339 -0.147,-0.401 -0.287,-0.511 -0.578,-1.099 -0.884,-1.575 -0.11,-0.282 -0.315,-0.528 -0.494,-0.783 -0.043,-0.214 -0.72,-1.379 -0.861,-1.884 -0.196,-0.664 -0.707,-1.14 -1.039,-1.72 -0.296,-0.442 -0.68,-0.757 -1.131,-1.012 -0.265,-0.272 -0.58,-0.545 -0.861,-0.826 -0.076,-0.119 0.077,-0.188 0.118,-0.256 0.384,-0.197 0.622,-0.597 0.956,-0.879 0.28,-0.218 0.52,-0.501 0.731,-0.746 0.246,-0.342 0.69,-0.624 0.895,-1.033 0.323,-0.34 0.459,-0.774 0.713,-1.114 0.257,-0.298 0.317,-0.649 0.538,-0.937 0.356,-0.06 0.57,0.323 0.723,0.519 0.411,0.315 0.844,0.654 1.211,1.055 1.642,1.527 3.082,2.938 4.726,4.37 0.24,0.231 0.434,0.434 0.733,0.554 C 6.039,-6.737 6.081,-6.864 6.123,-6.975 6.062,-7.341 6.01,-7.707 5.927,-8.049 5.576,-9.105 5.161,-10.042 4.794,-11.064 4.702,-11.336 4.538,-11.565 4.437,-11.82 c -0.138,-0.129 -0.214,-0.359 -0.316,-0.52 -0.177,-0.179 -0.22,-0.478 -0.357,-0.691 -0.239,-0.102 -0.25,-0.351 -0.384,-0.551 -0.051,-0.204 -0.417,-0.598 -0.477,-0.736 -0.332,-0.338 -1.15,-0.979 -1.15,-0.979 -0.545,-0.442 -1.269,-0.611 -1.916,-0.92 -0.215,-0.126 -0.476,-0.194 -0.733,-0.263 -0.546,0 -1.033,-0.052 -1.609,-0.099 -0.16,-0.039 -0.507,-0.018 -0.549,-0.179 -0.189,-0.595 -0.293,-1.79 -0.293,-1.79 0.01,-0.255 -0.053,-0.435 -0.034,-0.708 -0.094,-0.484 -0.121,-1.012 -0.154,-1.515 0,-0.121 -0.163,-2.26 -0.306,-3.169 -0.051,-0.153 -0.008,-0.349 -0.086,-0.493 -0.032,-0.631 -0.068,-1.269 -0.092,-1.841 -0.077,-0.503 -0.197,-1.022 -0.232,-1.498 -0.213,-0.263 -0.348,-1.184 -0.357,-1.353 -0.086,-0.137 -0.171,-0.316 -0.349,-0.351 -0.082,-0.023 -0.118,-0.038 -0.213,-0.05 -0.114,0.042 -0.125,0.123 -0.189,0.222 -0.178,0.714 -0.417,1.405 -0.636,2.068 -0.069,0.229 -0.12,0.512 -0.206,0.768 -0.306,0.578 -0.314,1.302 -0.383,1.915 -0.102,1.013 -0.299,2.171 -0.247,3.202 0.025,0.631 -0.026,1.254 -0.007,1.882 0.016,0.673 0.195,1.363 0.254,2.052 -0.017,0.766 0.288,1.591 0.14,2.31 -0.038,0.291 -0.112,0.262 -0.14,0.441 -0.102,0.212 -0.305,0.341 -0.443,0.563 -1.023,0.724 -1.858,1.659 -2.759,2.53 -0.129,0.068 -0.229,0.118 -0.34,0.187 -0.444,-0.24 -0.843,-0.589 -1.286,-0.818 -0.981,-0.57 -1.882,-1.192 -2.76,-1.916 -0.528,-0.298 -0.987,-0.809 -1.61,-0.919 -0.205,-0.128 -0.439,-0.229 -0.641,-0.348 -1.026,0.099 -3.02,0 -3.02,0 -0.17,0.015 -0.381,-0.047 -0.599,0.018 -0.143,0.069 -0.224,0.133 -0.335,0.252 0.061,0.152 0.111,0.323 0.281,0.4 0.647,0.136 1.395,0.384 1.998,0.75 0.478,0.154 0.897,0.45 1.294,0.801 0.113,0.152 0.265,0.254 0.427,0.348 0.162,0.367 0.579,0.589 0.809,0.919 0.323,0.536 0.799,0.878 1.141,1.396 0.58,0.565 1.064,1.246 1.729,1.69 0.458,0.246 0.978,0.271 1.489,0.441 0.835,0.296 1.696,0.503 2.513,0.876 0.4,0.357 0.707,0.802 1.057,1.183 0.928,0.998 2.086,1.595 3.158,2.59 0.495,0.511 0.989,1.185 1.457,1.713 0.382,0.569 1.061,1.413 1.611,2.107 -0.233,0.007 -0.466,0.017 -0.701,0.017 -10.945,0 -19.817,-8.874 -19.817,-19.817 0,-6.016 2.684,-11.403 6.916,-15.037 0.112,0.15 0.21,0.283 0.248,0.325 -0.57,1.763 -1.841,3.151 -1.933,4.981 -0.07,1.373 -0.273,2.634 -0.156,3.97 0.156,1.235 0.248,2.562 0.743,3.696 0.97,1.728 2.198,3.399 3.397,4.939 l 0.077,0.06 c 0,0.016 0.452,-0.077 0.648,-0.247 0.094,-0.094 0.008,-0.255 0.094,-0.332 0,0 -0.069,-0.418 -0.113,-0.606 -0.034,-0.237 -0.186,-0.534 -0.23,-0.826 -0.186,-0.161 -0.5,-0.868 -0.569,-1.089 l -0.059,-0.196 c -0.332,-1.056 -0.912,-2.06 -1.175,-3.124 -0.129,-0.614 -0.078,-1.244 -0.069,-1.875 -0.009,-0.444 -0.009,-0.946 0.016,-1.32 0.094,-0.623 0.181,-1.219 0.385,-1.84 0.161,-0.334 0.219,-0.573 0.375,-0.964 0.175,-0.685 0.408,-1.267 0.638,-1.913 0.051,-0.113 0.106,-0.645 0.458,-0.751 0.359,-0.009 0.657,-0.059 1.014,-0.017 0.272,-0.102 0.614,-0.128 0.904,-0.092 1.482,-0.164 2.971,-0.129 4.462,-0.102 0.715,0.119 1.379,0.238 2.111,0.33 0.547,-0.042 1.149,0.018 1.745,0.018 0.317,0.052 0.733,0.084 1.032,0.093 0.436,-0.059 0.989,0.137 1.397,0 0.698,-0.126 1.422,-0.084 2.096,-0.137 0.094,0 0.076,-0.11 0.076,-0.169 -0.22,-0.096 0,-0.34 -0.154,-0.476 -1.005,-0.494 -2.036,-0.878 -2.998,-1.338 l -0.077,-0.076 c -0.706,-0.468 -1.601,-0.476 -2.255,-0.962 -0.206,-0.044 -0.384,-0.111 -0.58,-0.061 -0.364,-0.059 -0.697,-0.186 -1.03,-0.324 -1.576,-0.313 -3.16,-0.648 -4.734,-0.919 -0.045,-0.034 -0.402,-0.256 -0.461,-0.418 -0.094,-0.042 -0.059,-0.186 -0.154,-0.255 -0.159,-0.365 -0.164,-0.747 -0.188,-1.114 2.427,-1.06 5.104,-1.65 7.92,-1.65 5.079,0 9.706,1.911 13.215,5.052 -0.038,0.758 -0.358,1.792 -0.44,2.31 -0.713,1.143 -1.165,2.31 -1.838,3.466 -0.163,0.57 -0.53,1.05 -0.69,1.637 -0.171,0.195 -0.214,0.553 -0.409,0.765 -0.587,0.044 -1.175,-0.152 -1.755,-0.152 -0.196,-0.146 -0.518,-0.205 -0.775,-0.309 -0.257,0.052 -0.571,-0.066 -0.818,0.019 -0.519,-0.067 -1.848,-0.205 -2.008,-0.247 -0.546,-0.076 -1.133,-0.135 -1.688,-0.248 -0.243,-0.02 -0.365,-0.078 -0.657,-0.083 -0.372,-0.017 -0.578,0.058 -0.882,0.075 -0.403,-0.144 -0.793,-0.05 -1.186,-0.144 -0.101,0.094 -0.28,0.188 -0.273,0.342 0.018,0.075 -0.118,0.228 0,0.305 0.385,0.069 0.692,0.332 1.074,0.402 0.103,0.101 0.579,0.084 0.545,0.168 0.835,0.35 1.771,0.452 2.521,0.93 0.255,0.034 0.46,0.186 0.716,0.219 1.08,0.391 2.069,0.887 3.176,1.288 1.498,0.347 2.725,1.089 4.138,1.576 0.299,0.008 0.521,0.144 0.732,0.34 0.309,0.357 0.512,0.808 0.743,1.225 0.502,0.597 0.655,1.346 1.302,1.856 0.195,0.274 0.28,0.59 0.502,0.844 0,0.411 -0.153,0.792 -0.34,1.15 -0.348,0.495 -0.707,1.073 -0.98,1.618 -0.639,0.878 -0.918,1.951 -1.089,2.963 -0.24,0.391 -0.674,0.528 -0.981,0.868 l -0.041,0 c -0.248,0.163 -0.393,0.3 -0.597,0.495 -0.416,0.263 -0.596,0.664 -0.911,1.014 -0.316,0.229 -0.391,0.63 -0.46,0.947 0.52,0.101 1.031,0.007 1.525,0.076 0.203,-0.086 0.459,0.05 0.653,-0.059 0.268,-0.309 0.478,-0.657 0.616,-1.024 1.421,-2.045 3.134,-3.688 4.564,-5.629 0.274,-0.154 0.145,-0.555 0.264,-0.783 0.11,-0.511 0.162,-1.055 0.229,-1.55 0.231,-1.031 -0.219,-1.995 -0.152,-3.031 0,0 -0.239,-2.359 -0.382,-3.417 -0.222,-0.869 -0.18,-1.804 -0.443,-2.674 -0.121,-0.536 -0.317,-1.123 -0.436,-1.697 0.051,-0.252 -0.205,-0.413 -0.136,-0.722 0.072,-0.083 0.548,-0.295 0.912,-0.445 1.75,2.953 2.757,6.399 2.757,10.082 C 17.703,-9.473 9.951,-1.054 0,0 Z m -9.591,-3.544 c 0.248,0.145 0.47,-0.118 0.706,-0.16 0.224,-0.307 0.316,-0.716 0.419,-1.066 0.238,-0.349 -0.061,-0.706 -0.053,-1.099 -0.116,-0.263 -0.288,-0.519 -0.424,-0.765 -0.256,-0.129 -0.502,-0.401 -0.801,-0.205 -0.094,-0.025 -0.313,0.067 -0.349,0.067 -0.281,0.198 -0.823,0.104 -0.845,0.58 -0.057,0.666 -0.432,1.202 -0.49,1.874 0.365,0.672 1.275,0.451 1.837,0.774 z m 0.912,-24.262 c -0.297,-0.427 -0.407,-0.894 -0.647,-1.382 0.018,-0.125 -0.128,-0.116 -0.213,-0.169 -0.094,-0.127 -0.221,-0.178 -0.357,-0.178 -0.249,0.128 -0.47,-0.085 -0.689,0.12 -0.273,0.307 -0.47,0.68 -0.537,1.073 -0.197,0.614 0.05,1.192 0.109,1.804 0.11,0.352 0.248,0.733 0.46,1.065 0.076,0.171 0.117,0.359 0.315,0.445 0.088,0.077 0.196,0.058 0.256,0.1 0.28,0.01 0.588,0.198 0.845,-0.102 0.042,-0.169 0.194,-0.255 0.271,-0.417 0.103,-0.547 0.347,-1.108 0.383,-1.609 -0.051,-0.247 -0.152,-0.478 -0.196,-0.75 z m 16.77,12.323 0.075,-0.06 c 0.359,-0.18 0.733,-0.196 1.1,-0.349 0.444,-0.094 0.782,-0.511 0.986,-0.877 0.069,-0.358 0.086,-0.785 0.13,-1.149 -0.003,-0.552 0.458,-1.559 -0.427,-1.822 -0.468,-0.019 -0.859,0.23 -1.268,0.407 -0.223,0.035 -0.427,0.24 -0.596,0.359 -0.641,0.323 -0.512,1.106 -0.785,1.651 -0.026,0.374 -0.111,0.791 -0.169,1.185 -0.036,0.171 0.05,0.315 0.11,0.485 0.213,0.254 0.546,0.246 0.844,0.17" />
      </g>
      <g
         transform="translate(41.384,40.323)"
         id="g3364"
         style="fill:#3200e6;fill-opacity:1">
        <path
           inkscape:connector-curvature="0"
           id="path3366"
           style="fill:#3200e6;fill-opacity:1;fill-rule:nonzero;stroke:none"
           d="m 0,0 1.972,0 0,-2.061 c -0.553,-0.295 -1.286,-0.45 -2.126,-0.45 -1.868,0 -3.173,1.417 -3.173,3.445 0,1.917 1.335,3.309 3.173,3.309 0.941,0 1.847,-0.337 2.424,-0.901 L 2.363,3.25 3.817,4.72 3.714,4.812 c -0.938,0.837 -2.208,1.244 -3.882,1.244 -3.071,0 -5.217,-2.151 -5.217,-5.231 0,-3.032 2.146,-5.149 5.217,-5.149 1.485,0 2.847,0.325 4.047,0.967 l 0.069,0.038 0,5.133 L 0,1.814 0,0 Z m 8.775,0.082 4.419,0 0,1.813 -4.419,0 0,2.103 4.664,0 0,1.813 -6.641,0 0,-9.89 6.886,0 0,1.813 -4.909,0 0,2.348 z m 12.238,5.975 c -0.04,0 -0.08,0 -0.118,-0.001 -3.072,0 -5.217,-2.151 -5.217,-5.231 0,-3.032 2.145,-5.149 5.217,-5.149 l 0.002,0 c 3.144,0.057 5.256,2.148 5.256,5.204 0,3.096 -2.066,5.177 -5.14,5.177 z m -0.105,-8.568 c -1.868,0 -3.172,1.417 -3.172,3.445 0,1.917 1.334,3.309 3.172,3.309 1.846,0 3.187,-1.392 3.187,-3.309 0,-2.028 -1.311,-3.445 -3.187,-3.445 z m 11.626,8.322 -3.925,0 0,-9.89 3.721,0 c 2.536,0 5.231,1.733 5.231,4.945 0,3.416 -2.525,4.945 -5.027,4.945 z m -0.802,-8.077 -1.147,0 0,6.264 1.432,0 c 1.59,0 3.486,-0.544 3.486,-3.132 0,-2.827 -2.637,-3.132 -3.771,-3.132 z m 8.244,-1.813 1.977,0 0,9.891 -1.977,0 0,-9.891 z m 8.471,5.934 c -0.954,0.307 -1.708,0.55 -1.708,1.282 0,0.815 0.747,1.106 1.446,1.106 0.674,0 1.264,-0.264 1.579,-0.707 l 0.092,-0.13 1.452,1.531 -0.096,0.09 c -0.899,0.85 -2.046,1.029 -2.851,1.029 -1.831,0 -3.68,-0.94 -3.68,-3.042 0,-2.025 1.547,-2.527 2.791,-2.931 0.954,-0.309 1.778,-0.577 1.778,-1.406 0,-0.772 -0.801,-1.188 -1.555,-1.188 -0.732,0 -1.402,0.354 -1.794,0.948 l -0.087,0.132 -1.494,-1.447 0.079,-0.094 c 0.94,-1.117 2.289,-1.352 3.255,-1.352 2.22,0 3.654,1.258 3.654,3.205 0,2.053 -1.586,2.564 -2.861,2.974" />
      </g>
    </g>
  </g>
</svg>
